<svg id="SvgjsSvg1006" width="1027.71875" height="1031.703125" xmlns="http://www.w3.org/2000/svg" version="1.1" xmlns:xlink="http://www.w3.org/1999/xlink" xmlns:svgjs="http://svgjs.com/svgjs"><defs id="SvgjsDefs1007"><marker id="SvgjsMarker1082" markerWidth="16" markerHeight="12" refX="16" refY="6" viewBox="0 0 16 12" orient="auto" markerUnits="userSpaceOnUse"><path id="SvgjsPath1083" d="M0,2 L14,6 L0,11 L0,2" fill="#323232" stroke="#323232" stroke-width="2"></path></marker><marker id="SvgjsMarker1096" markerWidth="16" markerHeight="12" refX="16" refY="6" viewBox="0 0 16 12" orient="auto" markerUnits="userSpaceOnUse"><path id="SvgjsPath1097" d="M0,2 L14,6 L0,11 L0,2" fill="#323232" stroke="#323232" stroke-width="2"></path></marker><marker id="SvgjsMarker1100" markerWidth="16" markerHeight="12" refX="16" refY="6" viewBox="0 0 16 12" orient="auto" markerUnits="userSpaceOnUse"><path id="SvgjsPath1101" d="M0,2 L14,6 L0,11 L0,2" fill="#323232" stroke="#323232" stroke-width="2"></path></marker><marker id="SvgjsMarker1110" markerWidth="16" markerHeight="12" refX="16" refY="6" viewBox="0 0 16 12" orient="auto" markerUnits="userSpaceOnUse"><path id="SvgjsPath1111" d="M0,2 L14,6 L0,11 L0,2" fill="#323232" stroke="#323232" stroke-width="2"></path></marker><marker id="SvgjsMarker1118" markerWidth="16" markerHeight="12" refX="16" refY="6" viewBox="0 0 16 12" orient="auto" markerUnits="userSpaceOnUse"><path id="SvgjsPath1119" d="M0,2 L14,6 L0,11 L0,2" fill="#323232" stroke="#323232" stroke-width="2"></path></marker><marker id="SvgjsMarker1126" markerWidth="16" markerHeight="12" refX="16" refY="6" viewBox="0 0 16 12" orient="auto" markerUnits="userSpaceOnUse"><path id="SvgjsPath1127" d="M0,2 L14,6 L0,11 L0,2" fill="#323232" stroke="#323232" stroke-width="2"></path></marker><marker id="SvgjsMarker1130" markerWidth="16" markerHeight="12" refX="16" refY="6" viewBox="0 0 16 12" orient="auto" markerUnits="userSpaceOnUse"><path id="SvgjsPath1131" d="M0,2 L14,6 L0,11 L0,2" fill="#323232" stroke="#323232" stroke-width="2"></path></marker><marker id="SvgjsMarker1138" markerWidth="16" markerHeight="12" refX="16" refY="6" viewBox="0 0 16 12" orient="auto" markerUnits="userSpaceOnUse"><path id="SvgjsPath1139" d="M0,2 L14,6 L0,11 L0,2" fill="#323232" stroke="#323232" stroke-width="2"></path></marker><marker id="SvgjsMarker1146" markerWidth="16" markerHeight="12" refX="16" refY="6" viewBox="0 0 16 12" orient="auto" markerUnits="userSpaceOnUse"><path id="SvgjsPath1147" d="M0,2 L14,6 L0,11 L0,2" fill="#323232" stroke="#323232" stroke-width="2"></path></marker><pattern id="SvgjsPattern1154" x="0" y="0" width="73.69444444444468" height="70" patternUnits="userSpaceOnUse"><image id="SvgjsImage1155" xlink:href="https://cdn0.iconfinder.com/data/icons/travel-and-leisure/512/16-128.png" width="73.69444444444468" height="70" preserveAspectRatio="none" crossOrigin="anonymous" x="0" y="0"></image></pattern></defs><g id="SvgjsG1008" transform="translate(34.305555555555316,587.9166666666662)"><path id="SvgjsPath1009" d="M 0 4Q 0 0 4 0L 696 0Q 700 0 700 4L 700 246Q 700 250 696 250L 4 250Q 0 250 0 246Z" stroke="#323232" stroke-width="2" fill-opacity="1" fill="#737373"></path><g id="SvgjsG1010"><text id="SvgjsText1011" font-family="Arial" text-anchor="middle" font-size="13px" width="0" fill="#323232" font-weight="400" align="middle" anchor="middle" family="Arial" size="13px" weight="400" font-style="" y="115.05" transform="rotate(0)"></text></g></g><g id="SvgjsG1012" transform="translate(25,25)"><path id="SvgjsPath1013" d="M 0 4Q 0 0 4 0L 696 0Q 700 0 700 4L 700 246Q 700 250 696 250L 4 250Q 0 250 0 246Z" stroke="#454545" stroke-width="2" fill-opacity="1" fill="#737373"></path><g id="SvgjsG1014"><text id="SvgjsText1015" font-family="Arial" text-anchor="middle" font-size="13px" width="0" fill="#323232" font-weight="400" align="middle" anchor="middle" family="Arial" size="13px" weight="400" font-style="" y="115.05" transform="rotate(0)"></text></g></g><g id="SvgjsG1016" transform="translate(67.5,111)"><path id="SvgjsPath1017" d="M 0 0L 141 0L 141 60L 0 60Z" stroke="#ffff33" stroke-width="2" fill-opacity="1" fill="#ffff33"></path><g id="SvgjsG1018"><text id="SvgjsText1019" font-family="Arial" text-anchor="middle" font-size="13px" width="80" fill="#000000" font-weight="400" align="middle" anchor="middle" family="Arial" size="13px" weight="400" font-style="" y="20.05" transform="rotate(0)"><tspan id="SvgjsTspan1020" dy="16" x="70.5"><tspan id="SvgjsTspan1021" style="text-decoration:;">Android-client</tspan></tspan></text></g></g><g id="SvgjsG1022" transform="translate(317.3055555555553,111)"><path id="SvgjsPath1023" d="M 0 0L 141 0L 141 60L 0 60Z" stroke="#ffff33" stroke-width="2" fill-opacity="1" fill="#ffff33"></path><g id="SvgjsG1024"><text id="SvgjsText1025" font-family="Arial" text-anchor="middle" font-size="13px" width="75" fill="#323232" font-weight="400" align="middle" anchor="middle" family="Arial" size="13px" weight="400" font-style="" y="20.05" transform="rotate(0)"><tspan id="SvgjsTspan1026" dy="16" x="70.5"><tspan id="SvgjsTspan1027" style="text-decoration:;">Python-client</tspan></tspan></text></g></g><g id="SvgjsG1028" transform="translate(547.5,111)"><path id="SvgjsPath1029" d="M 0 0L 141 0L 141 60L 0 60Z" stroke="#ffff33" stroke-width="2" fill-opacity="1" fill="#ffff33"></path><g id="SvgjsG1030"><text id="SvgjsText1031" font-family="Arial" text-anchor="middle" font-size="13px" width="87" fill="#323232" font-weight="400" align="middle" anchor="middle" family="Arial" size="13px" weight="400" font-style="" y="20.05" transform="rotate(0)"><tspan id="SvgjsTspan1032" dy="16" x="70.5"><tspan id="SvgjsTspan1033" style="text-decoration:;">HomeAssistant</tspan></tspan></text></g></g><g id="SvgjsG1034" transform="translate(283.3055555555553,44.85714285714283)"><path id="SvgjsPath1035" d="M 0 0L 208 0L 208 30L 0 30Z" stroke="none" fill="none"></path><g id="SvgjsG1036"><text id="SvgjsText1037" font-family="Arial" text-anchor="middle" font-size="13px" width="69" fill="#000000" font-weight="700" align="middle" anchor="middle" family="Arial" size="13px" weight="700" font-style="" y="5.05" transform="rotate(0)"><tspan id="SvgjsTspan1038" dy="16" x="104"><tspan id="SvgjsTspan1039" style="text-decoration:;">User Client</tspan></tspan></text></g></g><g id="SvgjsG1040" transform="translate(292.8055555555553,610.1666666666662)"><path id="SvgjsPath1041" d="M 0 0L 183 0L 183 30L 0 30Z" stroke="none" fill="none"></path><g id="SvgjsG1042"><text id="SvgjsText1043" font-family="Arial" text-anchor="middle" font-size="13px" width="55" fill="#000000" font-weight="700" align="middle" anchor="middle" family="Arial" size="13px" weight="700" font-style="" y="5.05" transform="rotate(0)"><tspan id="SvgjsTspan1044" dy="16" x="91.5"><tspan id="SvgjsTspan1045" style="text-decoration:;">ESP8266</tspan></tspan></text></g></g><g id="SvgjsG1046" transform="translate(67.50000000000001,645)"><path id="SvgjsPath1047" d="M 0 0L 141 0L 141 60L 0 60Z" stroke="#3399ff" stroke-width="2" fill-opacity="1" fill="#3399ff"></path><g id="SvgjsG1048"><text id="SvgjsText1049" font-family="Arial" text-anchor="middle" font-size="13px" width="51" fill="#000000" font-weight="400" align="middle" anchor="middle" family="Arial" size="13px" weight="400" font-style="" y="20.05" transform="rotate(0)"><tspan id="SvgjsTspan1050" dy="16" x="70.5"><tspan id="SvgjsTspan1051" style="text-decoration:;">UDP API</tspan></tspan></text></g></g><g id="SvgjsG1052" transform="translate(719.7222222222226,304.9999999999999)"><path id="SvgjsPath1053" d="M 0 4Q 0 0 4 0L 279.27777777777715 0Q 283.27777777777715 0 283.27777777777715 4L 283.27777777777715 246Q 283.27777777777715 250 279.27777777777715 250L 4 250Q 0 250 0 246Z" stroke="#323232" stroke-width="2" fill-opacity="1" fill="#737373"></path><g id="SvgjsG1054"><text id="SvgjsText1055" font-family="Arial" text-anchor="middle" font-size="13px" width="0" fill="#323232" font-weight="400" align="middle" anchor="middle" family="Arial" size="13px" weight="400" font-style="" y="115.05" transform="rotate(0)"></text></g></g><g id="SvgjsG1056" transform="translate(860.4999999999998,410.37808641975266)"><path id="SvgjsPath1057" d="M 0 0L 141 0L 141 36.25L 0 36.25Z" stroke="none" fill="none"></path><g id="SvgjsG1058"><text id="SvgjsText1059" font-family="Arial" text-anchor="middle" font-size="13px" width="72" fill="#000000" font-weight="700" align="middle" anchor="middle" family="Arial" size="13px" weight="700" font-style="" y="8.175" transform="rotate(0)"><tspan id="SvgjsTspan1060" dy="16" x="70.5"><tspan id="SvgjsTspan1061" style="text-decoration:;">IRext Could</tspan></tspan></text></g></g><g id="SvgjsG1062" transform="translate(758.5,340.31172839506087)"><path id="SvgjsPath1063" d="M 0 0L 141 0L 141 60L 0 60Z" stroke="#ccff99" stroke-width="2" fill-opacity="1" fill="#ccff99"></path><g id="SvgjsG1064"><text id="SvgjsText1065" font-family="Arial" text-anchor="middle" font-size="13px" width="55" fill="#323232" font-weight="400" align="middle" anchor="middle" family="Arial" size="13px" weight="400" font-style="" y="20.05" transform="rotate(0)"><tspan id="SvgjsTspan1066" dy="16" x="70.5"><tspan id="SvgjsTspan1067" style="text-decoration:;">index API</tspan></tspan></text></g></g><g id="SvgjsG1068" transform="translate(758.5,453.75)"><path id="SvgjsPath1069" d="M 0 4Q 0 0 4 0L 137 0Q 141 0 141 4L 141 56Q 141 60 137 60L 4 60Q 0 60 0 56Z" stroke="#ccff99" stroke-width="2" fill-opacity="1" fill="#ccff99"></path><g id="SvgjsG1070"><text id="SvgjsText1071" font-family="Arial" text-anchor="middle" font-size="13px" width="20" fill="#323232" font-weight="400" align="middle" anchor="middle" family="Arial" size="13px" weight="400" font-style="" y="20.05" transform="rotate(0)"><tspan id="SvgjsTspan1072" dy="16" x="70.5"><tspan id="SvgjsTspan1073" style="text-decoration:;">oss</tspan></tspan></text></g></g><g id="SvgjsG1074" transform="translate(547.5,645)"><path id="SvgjsPath1075" d="M 0 0L 141 0L 141 60L 0 60Z" stroke="#3399ff" stroke-width="2" fill-opacity="1" fill="#3399ff"></path><g id="SvgjsG1076"><text id="SvgjsText1077" font-family="Arial" text-anchor="middle" font-size="13px" width="60" fill="#323232" font-weight="400" align="middle" anchor="middle" family="Arial" size="13px" weight="400" font-style="" y="20.05" transform="rotate(0)"><tspan id="SvgjsTspan1078" dy="16" x="70.5"><tspan id="SvgjsTspan1079" style="text-decoration:;">MQTT API</tspan></tspan></text></g></g><g id="SvgjsG1080"><path id="SvgjsPath1081" d="M618 171L618 407.08333333333303L618 407.08333333333303L618 645" stroke="#323232" stroke-width="2" fill="none" marker-end="url(#SvgjsMarker1082)"></path><rect id="SvgjsRect1084" width="37" height="16" x="599.5" y="400" fill="#ffffff"></rect><text id="SvgjsText1085" font-family="Arial" text-anchor="middle" font-size="13px" width="37" fill="#323232" font-weight="400" align="top" anchor="middle" family="Arial" size="13px" weight="400" font-style="" y="398.05" transform="rotate(0)"><tspan id="SvgjsTspan1086" dy="16" x="618"><tspan id="SvgjsTspan1087" style="text-decoration:;">MQTT</tspan></tspan></text></g><g id="SvgjsG1088" transform="translate(314.3055555555553,733.25)"><path id="SvgjsPath1089" d="M 0 0L 141 0L 141 60L 0 60Z" stroke="#3399ff" stroke-width="2" fill-opacity="1" fill="#3399ff"></path><g id="SvgjsG1090"><text id="SvgjsText1091" font-family="Arial" text-anchor="middle" font-size="13px" width="81" fill="#323232" font-weight="400" align="middle" anchor="middle" family="Arial" size="13px" weight="400" font-style="" y="20.05" transform="rotate(0)"><tspan id="SvgjsTspan1092" dy="16" x="70.5"><tspan id="SvgjsTspan1093" style="text-decoration:;">IR Emit Driver</tspan></tspan></text></g></g><g id="SvgjsG1094"><path id="SvgjsPath1095" d="M138 705L138 763.25L314.3055555555553 763.25" stroke="#323232" stroke-width="2" fill="none" marker-end="url(#SvgjsMarker1096)"></path></g><g id="SvgjsG1098"><path id="SvgjsPath1099" d="M618 705L618 763.25L455.3055555555553 763.25" stroke="#323232" stroke-width="2" fill="none" marker-end="url(#SvgjsMarker1100)"></path></g><g id="SvgjsG1102" transform="translate(314.3055555555553,876.7142857142856)"><path id="SvgjsPath1103" d="M 0 4Q 0 0 4 0L 137 0Q 141 0 141 4L 141 56Q 141 60 137 60L 4 60Q 0 60 0 56Z" stroke="#ccff99" stroke-width="2" fill-opacity="1" fill="#ccff99"></path><g id="SvgjsG1104"><text id="SvgjsText1105" font-family="Arial" text-anchor="middle" font-size="13px" width="76" fill="#323232" font-weight="400" align="middle" anchor="middle" family="Arial" size="13px" weight="400" font-style="" y="20.05" transform="rotate(0)"><tspan id="SvgjsTspan1106" dy="16" x="70.5"><tspan id="SvgjsTspan1107" style="text-decoration:;">IR Peripheral</tspan></tspan></text></g></g><g id="SvgjsG1108"><path id="SvgjsPath1109" d="M67.5 141L45 141L45 675L67.50000000000001 675" stroke="#323232" stroke-width="2" fill="none" marker-end="url(#SvgjsMarker1110)"></path><rect id="SvgjsRect1112" width="27" height="16" x="31.5" y="400" fill="#ffffff"></rect><text id="SvgjsText1113" font-family="Arial" text-anchor="middle" font-size="13px" width="27" fill="#323232" font-weight="400" align="top" anchor="middle" family="Arial" size="13px" weight="400" font-style="" y="398.05" transform="rotate(0)"><tspan id="SvgjsTspan1114" dy="16" x="45"><tspan id="SvgjsTspan1115" style="text-decoration:;">UDP</tspan></tspan></text></g><g id="SvgjsG1116"><path id="SvgjsPath1117" d="M317.3055555555553 141L262.15277777777766 141L262.15277777777766 675L208.5 675" stroke="#323232" stroke-width="2" fill="none" marker-end="url(#SvgjsMarker1118)"></path><rect id="SvgjsRect1120" width="27" height="16" x="248.65277777777771" y="399.24999999999994" fill="#ffffff"></rect><text id="SvgjsText1121" font-family="Arial" text-anchor="middle" font-size="13px" width="27" fill="#323232" font-weight="400" align="top" anchor="middle" family="Arial" size="13px" weight="400" font-style="" y="397.29999999999995" transform="rotate(0)"><tspan id="SvgjsTspan1122" dy="16" x="262.1527777777777"><tspan id="SvgjsTspan1123" style="text-decoration:;">UDP</tspan></tspan></text></g><g id="SvgjsG1124"><path id="SvgjsPath1125" d="M384.8055555555553 793.25L384.8055555555553 834.9821428571428L384.8055555555553 834.9821428571428L384.8055555555553 876.7142857142856" stroke="#323232" stroke-width="2" fill="none" marker-end="url(#SvgjsMarker1126)"></path></g><g id="SvgjsG1128"><path id="SvgjsPath1129" d="M829 513.75L829 712.9166666666662L734.3055555555553 712.9166666666662" stroke="#323232" stroke-width="2" fill="none" marker-end="url(#SvgjsMarker1130)"></path><rect id="SvgjsRect1132" width="34" height="16" x="812" y="652.6805555555554" fill="#ffffff"></rect><text id="SvgjsText1133" font-family="Arial" text-anchor="middle" font-size="13px" width="34" fill="#323232" font-weight="400" align="top" anchor="middle" family="Arial" size="13px" weight="400" font-style="" y="650.7305555555554" transform="rotate(0)"><tspan id="SvgjsTspan1134" dy="16" x="829"><tspan id="SvgjsTspan1135" style="text-decoration:;">HTTP</tspan></tspan></text></g><g id="SvgjsG1136"><path id="SvgjsPath1137" d="M829 340.31172839506087L829 80L387.8055555555553 80L387.8055555555553 111" stroke="#323232" stroke-width="2" fill="none" marker-end="url(#SvgjsMarker1138)"></path><rect id="SvgjsRect1140" width="34" height="16" x="706.0586419753081" y="72" fill="#ffffff"></rect><text id="SvgjsText1141" font-family="Arial" text-anchor="middle" font-size="13px" width="34" fill="#323232" font-weight="400" align="top" anchor="middle" family="Arial" size="13px" weight="400" font-style="" y="70.05" transform="rotate(0)"><tspan id="SvgjsTspan1142" dy="16" x="723.0586419753081"><tspan id="SvgjsTspan1143" style="text-decoration:;">HTTP</tspan></tspan></text></g><g id="SvgjsG1144"><path id="SvgjsPath1145" d="M899.5 370.31172839506087L928.25 370.31172839506087L928.25 43L138 43L138 111" stroke="#323232" stroke-width="2" fill="none" marker-end="url(#SvgjsMarker1146)"></path><rect id="SvgjsRect1148" width="34" height="16" x="660.1558641975304" y="35" fill="#ffffff"></rect><text id="SvgjsText1149" font-family="Arial" text-anchor="middle" font-size="13px" width="34" fill="#323232" font-weight="400" align="top" anchor="middle" family="Arial" size="13px" weight="400" font-style="" y="33.05" transform="rotate(0)"><tspan id="SvgjsTspan1150" dy="16" x="677.1558641975304"><tspan id="SvgjsTspan1151" style="text-decoration:;">HTTP</tspan></tspan></text></g><g id="SvgjsG1152" transform="matrix(-1,1.2246467991473532e-16,-1.2246467991473532e-16,-1,421.65278795030406,1006.7142944335938)"><path id="SvgjsPath1153" d="M 0 0L 73.69444444444468 0L 73.69444444444468 70L 0 70Z" stroke="none" fill="url(#SvgjsPattern1154)"></path></g></svg>